<svg width="169" height="57" viewBox="0 0 169 57" fill="none" xmlns="http://www.w3.org/2000/svg">
<path fill-rule="evenodd" clip-rule="evenodd" d="M158.12 0H10.2918C1.46864 0 0 3.05834 0 10.3316V46.2429C0 53.5107 3.02196 56.5097 10.2817 56.5097H158.12C165.385 56.5097 168.514 53.5065 168.514 46.2336V10.3316C168.514 3.05834 165.385 0 158.12 0Z" fill="black"/>
<path d="M82.7923 32.4116C79.68 32.4116 77.2163 34.7485 77.2163 37.9938C77.2163 41.1095 79.68 43.5761 82.7923 43.5761C85.9046 43.5761 88.3686 41.2393 88.3686 37.9938C88.3686 34.6185 85.9046 32.4116 82.7923 32.4116ZM82.7923 41.2393C81.1065 41.2393 79.68 39.8112 79.68 37.864C79.68 35.9165 81.1065 34.4885 82.7923 34.4885C84.4781 34.4885 85.9046 35.7869 85.9046 37.864C85.9046 39.8112 84.4781 41.2393 82.7923 41.2393ZM70.7324 32.4116C67.6201 32.4116 65.1561 34.7485 65.1561 37.9938C65.1561 41.1095 67.6201 43.5761 70.7324 43.5761C73.8447 43.5761 76.3084 41.2393 76.3084 37.9938C76.3084 34.6185 73.8447 32.4116 70.7324 32.4116ZM70.7324 41.2393C69.0464 41.2393 67.6201 39.8112 67.6201 37.864C67.6201 35.9165 69.0464 34.4885 70.7324 34.4885C72.4182 34.4885 73.8447 35.7869 73.8447 37.864C73.8447 39.8112 72.4182 41.2393 70.7324 41.2393ZM56.338 34.0993V36.4359H61.9142C61.7845 37.7343 61.2659 38.7729 60.6174 39.422C59.8394 40.201 58.5426 41.1095 56.338 41.1095C52.8367 41.1095 50.2433 38.3834 50.2433 34.8781C50.2433 31.373 52.9664 28.6469 56.338 28.6469C58.1536 28.6469 59.5799 29.4259 60.6174 30.3344L62.3032 28.6469C60.8767 27.3485 59.0613 26.3101 56.4676 26.3101C51.7994 26.3101 47.7793 30.2047 47.7793 34.8781C47.7793 39.5516 51.7992 43.4465 56.4676 43.4465C59.0613 43.4465 60.8767 42.6673 62.4329 40.9796C63.989 39.422 64.5078 37.2151 64.5078 35.5273C64.5078 35.0079 64.5078 34.4887 64.3782 34.0993H56.338V34.0993ZM115.212 35.9167C114.693 34.6185 113.396 32.4116 110.543 32.4116C107.69 32.4116 105.356 34.6185 105.356 37.9938C105.356 41.1095 107.691 43.5761 110.803 43.5761C113.267 43.5761 114.823 42.0183 115.342 41.1095L113.526 39.8112C112.878 40.72 112.1 41.3691 110.803 41.3691C109.506 41.3691 108.728 40.8498 108.08 39.6814L115.471 36.5657L115.212 35.9167ZM107.691 37.7342C107.691 35.6571 109.376 34.4887 110.544 34.4887C111.451 34.4887 112.359 35.0079 112.618 35.6571L107.691 37.7342ZM101.596 43.0567H104.06V26.8293H101.596V43.0567ZM97.7054 33.5799C97.0569 32.9308 96.0196 32.2816 94.7228 32.2816C91.9995 32.2816 89.4059 34.7483 89.4059 37.864C89.4059 40.9795 91.8698 43.3165 94.7228 43.3165C96.0196 43.3165 97.0569 42.6673 97.5757 42.0181H97.7054V42.7971C97.7054 44.8743 96.5382 46.0426 94.7228 46.0426C93.2963 46.0426 92.2588 45.0041 91.9995 44.0952L89.9247 45.0041C90.573 46.4322 92.1292 48.2495 94.8526 48.2495C97.7056 48.2495 100.04 46.562 100.04 42.5373V32.6712H97.7054V33.5799ZM94.8524 41.2393C93.1666 41.2393 91.7402 39.8112 91.7402 37.864C91.7402 35.9165 93.1666 34.4885 94.8524 34.4885C96.5381 34.4885 97.8351 35.9165 97.8351 37.864C97.8351 39.8112 96.5382 41.2393 94.8524 41.2393ZM126.494 26.8293H120.658V43.0567H123.122V36.9553H126.494C129.217 36.9553 131.81 35.0079 131.81 31.8922C131.81 28.7765 129.217 26.8293 126.494 26.8293ZM126.624 34.6185H123.122V29.0363H126.624C128.439 29.0363 129.477 30.5942 129.477 31.7622C129.347 33.1904 128.309 34.6185 126.624 34.6185ZM141.537 32.2818C139.721 32.2818 137.905 33.0608 137.257 34.7485L139.462 35.6573C139.98 34.7485 140.759 34.4888 141.666 34.4888C142.963 34.4888 144.13 35.268 144.26 36.5659V36.6957C143.871 36.4359 142.833 36.0467 141.796 36.0467C139.461 36.0467 137.128 37.3451 137.128 39.6816C137.128 41.8886 139.073 43.3167 141.147 43.3167C142.833 43.3167 143.611 42.5375 144.26 41.7588H144.389V43.0569H146.724V36.8257C146.465 33.9694 144.26 32.2818 141.537 32.2818ZM141.277 41.2393C140.499 41.2393 139.332 40.8498 139.332 39.8112C139.332 38.513 140.758 38.1236 141.925 38.1236C142.963 38.1236 143.482 38.3834 144.13 38.643C143.871 40.2008 142.574 41.2393 141.277 41.2393ZM154.893 32.6712L152.17 39.6814H152.041L149.188 32.6712H146.594L150.873 42.5373L148.409 47.99H150.873L157.487 32.6712H154.893ZM133.107 43.0567H135.571V26.8293H133.107V43.0567Z" fill="white"/>
<path d="M52.301 17.1902H56.3413C56.3644 17.2824 56.3833 17.3938 56.399 17.5244C56.4141 17.6551 56.4219 17.7857 56.4219 17.9162C56.4219 18.4464 56.3413 18.9458 56.1801 19.4142C56.0191 19.8829 55.7657 20.3015 55.4204 20.6702C55.0522 21.0621 54.6107 21.3657 54.0967 21.5806C53.5825 21.7956 52.9955 21.9033 52.3355 21.9033C51.737 21.9033 51.1729 21.7956 50.6434 21.5806C50.114 21.3657 49.6534 21.0661 49.2621 20.6818C48.8706 20.2977 48.56 19.8425 48.3297 19.3163C48.0994 18.7901 47.9844 18.2158 47.9844 17.5936C47.9844 16.9713 48.0994 16.397 48.3297 15.8708C48.56 15.3446 48.8706 14.8894 49.2621 14.5051C49.6534 14.1212 50.114 13.8215 50.6434 13.6065C51.1729 13.3914 51.737 13.2837 52.3355 13.2837C53.0031 13.2837 53.5998 13.3989 54.1254 13.6294C54.6511 13.8599 55.102 14.1787 55.478 14.5859L54.4075 15.6345C54.1387 15.3505 53.8395 15.1332 53.5096 14.9835C53.1796 14.8336 52.7845 14.7588 52.3241 14.7588C51.948 14.7588 51.5911 14.8261 51.2534 14.9604C50.9157 15.0948 50.6203 15.285 50.3671 15.5308C50.114 15.7768 49.9124 16.0744 49.7628 16.4238C49.6132 16.7735 49.5384 17.1634 49.5384 17.5936C49.5384 18.0239 49.6132 18.4136 49.7628 18.7631C49.9124 19.1128 50.1156 19.4103 50.373 19.6562C50.63 19.9021 50.9273 20.0923 51.265 20.2267C51.6025 20.3612 51.9631 20.4283 52.347 20.4283C52.7845 20.4283 53.1547 20.365 53.4578 20.2382C53.7608 20.1114 54.02 19.9484 54.2348 19.7484C54.3882 19.6101 54.5206 19.4354 54.632 19.224C54.743 19.0129 54.8294 18.7766 54.891 18.5153H52.301V17.1902V17.1902Z" fill="white"/>
<path d="M59.2649 14.9433V16.8562H62.5685V18.3313H59.2649V20.2443H62.9369V21.7192H57.7109V13.4683H62.9369V14.9433H59.2649Z" fill="white"/>
<path d="M66.1147 21.7192V14.9433H63.8125V13.4683H69.971V14.9433H67.6687V21.7192H66.1147Z" fill="white"/>
<path d="M75.1614 13.4683H73.6074V21.7192H75.1614V13.4683Z" fill="white"/>
<path d="M78.5698 21.7192V14.9433H76.2676V13.4683H82.4261V14.9433H80.1238V21.7192H78.5698Z" fill="white"/>
<path d="M89.7349 21.9034C89.1209 21.9034 88.5511 21.7919 88.0255 21.5692C87.4997 21.3465 87.0453 21.0411 86.6614 20.6531C86.2776 20.2651 85.9766 19.8081 85.7579 19.2817C85.5393 18.7557 85.4297 18.1927 85.4297 17.5936C85.4297 16.9942 85.5391 16.4316 85.7579 15.9054C85.9767 15.3792 86.2777 14.9221 86.6614 14.5341C87.0453 14.1461 87.4997 13.8408 88.0255 13.6179C88.5511 13.3952 89.1209 13.2837 89.7349 13.2837C90.3486 13.2837 90.9186 13.3952 91.4444 13.6179C91.9699 13.8408 92.4244 14.1461 92.8084 14.5341C93.1921 14.9221 93.4933 15.3792 93.7119 15.9054C93.9306 16.4316 94.0402 16.9942 94.0402 17.5936C94.0402 18.1927 93.9308 18.7557 93.7119 19.2817C93.4933 19.8081 93.192 20.2651 92.8084 20.6531C92.4244 21.0411 91.9699 21.3465 91.4444 21.5692C90.9186 21.7919 90.3486 21.9034 89.7349 21.9034ZM89.7349 20.4283C90.1187 20.4283 90.4775 20.3592 90.811 20.2209C91.1449 20.0826 91.4366 19.8907 91.686 19.6447C91.9353 19.3989 92.1311 19.1014 92.273 18.7517C92.415 18.4021 92.486 18.016 92.486 17.5936C92.486 17.1711 92.415 16.7851 92.273 16.4354C92.1311 16.0859 91.9353 15.7884 91.686 15.5424C91.4366 15.2966 91.1449 15.1045 90.811 14.9662C90.4773 14.8279 90.1185 14.7588 89.7349 14.7588C89.3512 14.7588 88.9924 14.8279 88.6587 14.9662C88.3248 15.1045 88.0331 15.2966 87.7837 15.5424C87.5342 15.7884 87.3386 16.0859 87.1968 16.4354C87.0547 16.7851 86.9838 17.1711 86.9838 17.5936C86.9838 18.016 87.0547 18.4021 87.1968 18.7517C87.3386 19.1014 87.5342 19.3989 87.7837 19.6447C88.0331 19.8907 88.3248 20.0826 88.6587 20.2209C88.9926 20.3592 89.3512 20.4283 89.7349 20.4283Z" fill="white"/>
<path d="M95.2949 13.4683H97.1021L100.417 18.9996H100.509L100.417 17.4093V13.4683H101.96V21.7192H100.325L96.8258 15.8767H96.7337L96.8258 17.467V21.7192H95.2949V13.4683Z" fill="white"/>
<path fill-rule="evenodd" clip-rule="evenodd" d="M35.9837 23.2792L15.8125 11.6611L31.7458 27.5294L35.9837 23.2792Z" fill="white"/>
<path fill-rule="evenodd" clip-rule="evenodd" d="M13.94 11.7793C13.8631 11.9192 13.7793 12.081 13.7793 12.2591V45.1355C13.7793 45.2385 13.8329 45.3358 13.8605 45.4272L30.7341 28.505L13.94 11.7793Z" fill="white"/>
<path fill-rule="evenodd" clip-rule="evenodd" d="M31.748 29.4771L15.2051 46.0676C15.2534 46.049 15.3014 46.0272 15.3484 46.0003L36.2505 33.9609L31.748 29.4771Z" fill="white"/>
<path fill-rule="evenodd" clip-rule="evenodd" d="M43.8899 27.8322L37.2204 23.9907L32.7227 28.5014L37.4895 33.2487L43.8899 29.5622C44.5563 29.1786 44.5563 28.216 43.8899 27.8322Z" fill="white"/>
</svg>
